<svg width="25" height="22" viewBox="0 0 25 22" fill="none" xmlns="http://www.w3.org/2000/svg">
<path d="M11.1723 10.6261L0.550609 3.38406C-0.183536 2.88351 -0.183536 2.0741 0.550609 1.57887L2.31568 0.375415C3.04983 -0.125138 4.23696 -0.125138 4.96329 0.375415L12.4922 5.50875L20.0211 0.375415C20.7552 -0.125138 21.9424 -0.125138 22.6687 0.375415L24.4494 1.57355C25.1835 2.0741 25.1835 2.88351 24.4494 3.37874L13.8277 10.6208C13.0936 11.1267 11.9064 11.1267 11.1723 10.6261ZM13.8277 20.8502L24.4494 13.6081C25.1835 13.1076 25.1835 12.2982 24.4494 11.803L22.6843 10.5995C21.9502 10.0989 20.763 10.0989 20.0367 10.5995L12.5 15.7275L4.9711 10.5942C4.23696 10.0936 3.04983 10.0936 2.32349 10.5942L0.550609 11.7976C-0.183536 12.2982 -0.183536 13.1076 0.550609 13.6028L11.1723 20.8449C11.9064 21.3508 13.0936 21.3507 13.8277 20.8502Z" fill="black"/>
</svg>
