<svg width="19" height="22" viewBox="0 0 19 22" fill="none" xmlns="http://www.w3.org/2000/svg">
<path d="M9.50423 6.59999C6.80691 6.59999 5.0324 8.26288 5.0324 10.9957C5.0324 13.7285 6.80691 15.4 9.50423 15.4C12.2015 15.4 13.6594 13.7285 13.6594 10.9957C13.6594 8.26288 12.2015 6.59999 9.50423 6.59999ZM9.50423 14.2055C7.76115 14.2055 6.33615 12.766 6.33615 10.9957C6.33615 9.22538 7.75691 7.78593 9.50423 7.78593C11.2515 7.78593 12.6723 9.22538 12.6723 10.9957C12.6723 12.766 11.2473 14.2055 9.50423 14.2055ZM15.7132 5.85663C15.7132 6.49687 15.2042 7.0082 14.5765 7.0082C13.9446 7.0082 13.4399 6.49257 13.4399 5.85663C13.4399 5.2207 13.9489 4.70507 14.5765 4.70507C15.2042 4.70507 15.7132 5.2207 15.7132 5.85663ZM18.3324 6.96666C18.2603 5.42408 18.3695 4.79245 17.2541 3.66667C16.1429 2.54089 15.182 2.27734 13.6595 2.2C12.0903 2.10977 7.32056 2.10976 5.75136 2.2C4.23306 2.27304 3.21048 2.44323 2.09508 3.56901C0.979677 4.69479 0.795237 5.42408 0.718897 6.96666C0.629835 8.55651 0.629833 13.4435 0.718896 15.0333C0.790994 16.5759 1.04132 17.5742 2.15673 18.7C3.27213 19.8258 4.22878 19.7227 5.75132 19.8C7.32052 19.8902 11.7308 19.8902 13.3 19.8C14.8225 19.7269 15.7834 19.8301 16.8946 18.7C18.0057 17.5742 18.2561 16.5759 18.3324 15.0333C18.4215 13.4435 18.4215 8.55651 18.3324 6.96666ZM16.9134 16.6719C16.5826 17.5141 15.9422 18.1629 15.1067 18.5023C13.8556 19.0051 10.8868 18.8891 9.50423 18.8891C8.12164 18.8891 5.14865 19.0008 3.90177 18.5023C3.07052 18.1672 2.43012 17.5184 2.09508 16.6719C1.59887 15.4043 1.71338 12.3965 1.71338 10.9957C1.71338 9.59492 1.60311 6.58281 2.09508 5.31953C2.42588 4.47734 3.06628 3.82851 3.90177 3.48906C5.15289 2.98632 8.12164 3.10234 9.50423 3.10234C10.8868 3.10234 13.8598 2.99062 15.1067 3.48906C15.9379 3.82421 16.5783 4.47304 16.9134 5.31953C17.4096 6.5871 17.2951 9.59492 17.2951 10.9957C17.2951 12.3965 17.4096 15.4086 16.9134 16.6719Z" fill="#F2F2F2"/>
</svg>
