<svg width="23" height="20" viewBox="0 0 23 20" fill="none" xmlns="http://www.w3.org/2000/svg">
    <path
        d="M1.54182 4.08771H21.9704C22.4043 4.08771 22.7561 3.75194 22.7561 3.33771V1.46271C22.7561 1.04847 22.4043 0.712708 21.9704 0.712708H1.54182C1.10786 0.712708 0.756104 1.04847 0.756104 1.46271V3.33771C0.756104 3.75194 1.10786 4.08771 1.54182 4.08771ZM1.54182 11.5877H21.9704C22.4043 11.5877 22.7561 11.2519 22.7561 10.8377V8.96271C22.7561 8.54847 22.4043 8.21271 21.9704 8.21271H1.54182C1.10786 8.21271 0.756104 8.54847 0.756104 8.96271V10.8377C0.756104 11.2519 1.10786 11.5877 1.54182 11.5877ZM1.54182 19.0877H21.9704C22.4043 19.0877 22.7561 18.7519 22.7561 18.3377V16.4627C22.7561 16.0485 22.4043 15.7127 21.9704 15.7127H1.54182C1.10786 15.7127 0.756104 16.0485 0.756104 16.4627V18.3377C0.756104 18.7519 1.10786 19.0877 1.54182 19.0877Z"
        fill="white" />
</svg>