<svg width="100" height="110" viewBox="0 0 100 110" fill="none" xmlns="http://www.w3.org/2000/svg">
<path d="M65.2455 66.6442C65.2455 75.6804 56.3795 75.4716 55.442 75.4716H37.3862V58.0661H55.442C64.942 58.0661 65.2455 64.8629 65.2455 66.6442ZM54.0513 51.0625C54.2009 51.0625 62.6317 51.2756 62.6317 43.326C62.6317 40.0192 61.8482 35.6832 54.0513 35.6832H37.3862V51.0625H54.0513ZM100 22.9098V86.5447C99.987 90.7605 98.2269 94.8 95.1039 97.781C91.981 100.762 87.7491 102.442 83.3326 102.455H16.6674C12.2509 102.442 8.01902 100.762 4.89608 97.781C1.77314 94.8 0.0129551 90.7605 0 86.5447L0 22.9098C0.0129551 18.6941 1.77314 14.6545 4.89608 11.6735C8.01902 8.69254 12.2509 7.01237 16.6674 7H83.3326C87.7491 7.01237 91.981 8.69254 95.1039 11.6735C98.2269 14.6545 99.987 18.6941 100 22.9098ZM75.4576 67.9077C75.4576 63.3118 73.9732 55.4879 64.5089 53.5575V53.402C69.6228 51.3182 72.8438 47.3828 72.8438 41.5469C72.8438 40.0554 73.2902 27.7443 55.5223 27.7443H27.1741V83.4254C55.7969 83.4254 58.3951 83.7834 63.692 82.2088C66.8638 81.267 75.4576 78.3778 75.4576 67.9077Z" fill="#563D7C"/>
</svg>
