<svg width="100" height="110" viewBox="0 0 100 110" fill="none" xmlns="http://www.w3.org/2000/svg">
<path d="M88.7946 6.81836H11.2054C5.06696 6.81836 0 11.655 0 17.5144V91.5769C0 97.4362 5.06696 102.273 11.2054 102.273H88.7946C94.933 102.273 100 97.4362 100 91.5769V17.5144C100 11.655 94.933 6.81836 88.7946 6.81836ZM78.6607 67.3936C78.6607 68.2885 77.8571 68.6721 76.9196 69.0556C73.192 70.5897 69.1964 71.9746 64.9107 71.9746C58.9062 71.9746 56.1161 68.4164 48.9062 68.4164C43.7054 68.4164 38.2366 70.2061 33.8393 72.1024C33.5714 72.2303 33.3036 72.2303 33.0357 72.3581V82.0314C33.0357 82.4149 33.0357 82.7985 32.9018 83.0541V83.3098C32.3661 85.0996 30.625 86.3567 28.6384 86.3567C26.1161 86.3567 24.1071 84.4391 24.1071 82.0314V35.4547C22.3661 34.1763 21.183 32.1522 21.183 29.851C21.183 25.9093 24.5089 22.7132 28.6607 22.7132C32.7902 22.7132 36.1384 25.888 36.1384 29.851C36.1384 32.1522 35.067 34.1763 33.2143 35.4547V39.3965C33.6161 39.2686 34.0179 39.1408 34.4196 38.8851C38.5491 37.2232 43.4821 35.8382 48.1473 35.8382C53.2143 35.8382 57.2098 37.1167 61.7411 38.7573C62.6786 39.1408 63.6161 39.2686 64.6652 39.2686C69.7321 39.2686 75.3348 35.8382 76.6741 35.8382C77.7455 35.8382 78.683 36.6053 78.683 37.5002V67.3936H78.6607Z" fill="#228AE6"/>
</svg>
