<svg width="100" height="110" viewBox="0 0 100 110" fill="none" xmlns="http://www.w3.org/2000/svg">
<path d="M49.9999 108.238C48.5044 108.238 46.9865 107.854 45.6696 107.13L31.8973 99.3531C29.8437 98.2451 30.8482 97.8616 31.5178 97.6485C34.2633 96.7323 34.8214 96.5406 37.7455 94.9426C38.058 94.7721 38.4598 94.836 38.7723 95.0278L49.3526 101.015C49.7321 101.228 50.2678 101.228 50.6249 101.015L91.8526 78.3019C92.2321 78.0889 92.4776 77.6627 92.4776 77.2366V31.8105C92.4776 31.363 92.2321 30.9582 91.8303 30.7238L50.6249 8.03205C50.2455 7.81898 49.7321 7.81898 49.3526 8.03205L8.16958 30.7451C7.7678 30.9582 7.52226 31.3843 7.52226 31.8318V77.2366C7.52226 77.6627 7.7678 78.0889 8.16958 78.2806L19.4642 84.5022C25.6026 87.4213 29.3526 83.9909 29.3526 80.5179V35.6883C29.3526 35.0491 29.8883 34.559 30.558 34.559H35.7812C36.4285 34.559 36.9865 35.0491 36.9865 35.6883V80.5392C36.9865 88.3375 32.5223 92.8119 24.7767 92.8119C22.3883 92.8119 20.5133 92.8119 15.2901 90.3403L4.48655 84.3957C1.80797 82.9255 0.156189 80.1769 0.156189 77.2153V31.8105C0.156189 28.8701 1.80797 26.1002 4.48655 24.6301L45.6696 1.91699C48.2812 0.510742 51.741 0.510742 54.3303 1.91699L95.558 24.6514C98.2365 26.1215 99.8883 28.8701 99.8883 31.8318V77.2366C99.8883 80.1769 98.2365 82.9255 95.558 84.417L54.3303 107.13C53.0133 107.854 51.5178 108.238 49.9999 108.238ZM83.2812 63.4724C83.2812 54.971 77.2544 52.7124 64.5982 51.1144C51.7857 49.4951 50.491 48.6642 50.491 45.809C50.491 43.444 51.5848 40.2906 61.0714 40.2906C69.5312 40.2906 72.6562 42.0377 73.9508 47.4923C74.0624 48.0036 74.5535 48.3872 75.1115 48.3872H80.4687C80.8035 48.3872 81.116 48.2593 81.3392 48.0249C81.5624 47.7906 81.674 47.471 81.6517 47.1514C80.8258 37.7551 74.2857 33.3872 61.0714 33.3872C49.308 33.3872 42.299 38.1173 42.299 46.0647C42.299 54.6727 49.2857 57.059 60.558 58.1244C74.0624 59.3815 75.1115 61.2778 75.1115 63.8133C75.1115 68.2025 71.4062 70.0775 62.7232 70.0775C51.808 70.0775 49.4196 67.4568 48.616 62.2792C48.5267 61.7252 48.0357 61.3204 47.433 61.3204H42.0982C41.4285 61.3204 40.9151 61.8318 40.9151 62.4497C40.9151 69.0761 44.6874 76.9809 62.7455 76.9809C75.7812 76.9596 83.2812 72.0377 83.2812 63.4724Z" fill="#F7DF1E"/>
</svg>
