<svg width="92" height="100" viewBox="0 0 92 100" fill="none" xmlns="http://www.w3.org/2000/svg">
<g clip-path="url(#clip0)">
<path d="M45.8333 20.4097C70.3828 20.4097 89.2604 34.5112 89.2604 49.9995C89.2604 65.4878 70.3685 79.5894 45.8333 79.5894C21.2839 79.5894 2.40625 65.4878 2.40625 49.9995C2.40625 34.5112 21.2982 20.4097 45.8333 20.4097ZM45.8333 17.1284C20.5247 17.1284 0 31.8355 0 49.9995C0 68.1636 20.5247 82.8706 45.8333 82.8706C71.1419 82.8706 91.6667 68.1636 91.6667 49.9995C91.6667 31.8355 71.1419 17.1284 45.8333 17.1284ZM31.2526 47.3628C30.1211 55.273 26.125 54.4526 21.2122 54.4526L23.1745 40.6636C28.6172 40.6636 32.3125 39.8628 31.2526 47.3628ZM13.9505 68.4175H19.207L20.4531 59.6675C26.3398 59.6675 29.9922 60.2534 33.3724 55.937C37.1107 51.2495 38.0846 42.9097 35.4206 38.73C34.0312 36.5425 31.7969 35.4683 28.7604 35.4683H18.6341L13.9505 68.4175ZM40.5482 26.6987H45.776L44.5299 35.4487C49.0417 35.4487 53.224 34.9995 55.2435 37.5386C57.3633 40.1948 56.3463 43.5933 54.0547 59.6284H48.7552C50.9609 44.1206 51.3763 42.8315 50.5742 41.6597C49.8008 40.5269 48.0391 40.7612 43.7852 40.7612L41.0924 59.6284H35.8646L40.5482 26.6987ZM72.3307 47.3628C71.1849 55.3901 67.0742 54.4526 62.2904 54.4526L64.2526 40.6636C69.724 40.6636 73.3906 39.8628 72.3307 47.3628ZM55.0286 68.4175H60.2995L61.5456 59.6675C67.7331 59.6675 71.1562 60.1558 74.4648 55.937C78.2031 51.2495 79.1771 42.9097 76.513 38.73C75.1237 36.5425 72.8893 35.4683 69.8529 35.4683H59.7266L55.0286 68.4175Z" fill="#7478AE"/>
</g>
<defs>
<clipPath id="clip0">
<rect width="91.6667" height="100" fill="white"/>
</clipPath>
</defs>
</svg>
