<svg width="100" height="110" viewBox="0 0 100 110" fill="none" xmlns="http://www.w3.org/2000/svg">
<path d="M47.1626 80.736C47.1157 80.8638 47.0688 80.9661 47.1626 80.736V80.736ZM86.0891 62.199C82.9465 62.1976 79.8458 63.1818 77.0266 65.0755C76.1047 62.5399 75.1516 60.324 74.9954 58.6621C74.8079 56.7232 74.6047 55.5726 74.8235 53.2715C75.0422 50.9703 76.0266 47.7104 76.011 47.476C75.9954 47.2416 75.7922 46.0698 73.7766 46.0485C71.761 46.0271 70.0266 46.5811 69.8251 47.3056C69.4691 48.6295 69.1921 49.9904 68.9969 51.3752C68.6376 53.8681 64.9672 62.7743 62.8891 67.4192C62.2016 65.6081 61.6235 64.0101 61.4985 62.7317C61.311 60.7928 61.1079 59.6422 61.3266 57.3411C61.5454 55.0399 62.5297 51.78 62.5141 51.5456C62.4985 51.3112 62.2954 50.1394 60.2813 50.1181C58.2672 50.0968 56.5313 50.6507 56.3282 51.3752C56.1251 52.0996 55.9063 53.8041 55.5001 55.4448C55.0938 57.0854 50.2047 71.9149 48.9251 75.7715C48.2688 77.7317 47.7063 79.3084 47.3001 80.3737C47.2376 80.5442 47.1907 80.6507 47.1594 80.736C47.2063 80.6294 47.2376 80.5229 47.2376 80.5655C46.8938 81.4817 46.6907 81.9931 46.6907 81.9931V82.0144C46.4251 82.6962 46.1282 83.3141 45.9876 83.3141C45.8938 83.3141 45.6907 81.5243 46.0344 79.074C46.7688 73.9178 48.5032 65.9064 48.4876 65.6294C48.4719 65.4803 48.8157 64.0953 47.3469 63.3496C45.925 62.6465 45.4094 63.8183 45.2844 63.8183C45.1594 63.8183 45.0657 64.2445 45.0657 64.2445C45.0657 64.2445 46.6438 55.2104 42.036 55.2104C39.161 55.2104 35.161 59.5144 33.1954 63.4135C31.961 64.3297 29.2891 66.3112 26.4766 68.4206C25.3985 69.2303 24.2891 70.0612 23.2422 70.8496C23.1641 70.7431 23.1016 70.6365 23.0235 70.53C17.4313 62.3908 7.1063 56.6379 7.5438 45.7076C7.70005 41.7232 8.71568 31.2615 27.3985 18.5627C42.711 8.16494 54.9532 11.02 57.061 17.3695C60.0922 26.4249 50.5157 43.2786 34.6141 45.7076C28.5532 46.6237 25.3672 43.4277 24.5704 42.2345C23.7422 40.9774 23.6172 40.9135 23.3047 41.1479C22.7891 41.5314 23.1172 42.6394 23.3047 43.2999C23.7735 44.9831 25.7266 47.9661 29.0532 49.4575C31.9751 50.7573 39.0813 51.4817 47.6735 46.9433C57.3266 41.8723 64.8407 27.7459 62.6376 15.9206C60.3938 3.90357 45.7813 -0.0381911 31.9641 6.65215C23.7313 10.6365 14.8282 16.9007 8.42349 25.0612C0.815679 34.7772 -0.401509 43.236 0.0984911 46.7729C1.87818 59.3226 14.5626 67.5044 19.6391 73.5556C19.3891 73.7473 19.1547 73.9178 18.936 74.0882C16.3907 75.8141 6.72037 82.7175 4.30005 90.0044C1.56568 98.2715 4.75318 104.195 6.84537 105.004C13.3751 107.476 20.061 103.023 23.6532 95.7147C27.2454 88.4064 26.8094 78.861 25.1532 74.5144C25.1376 74.4504 25.1063 74.4078 25.0907 74.3439C25.7469 73.8112 26.4188 73.2786 27.0907 72.7459C28.386 71.7019 29.6516 70.7431 30.761 69.9121C30.136 72.2132 29.6829 74.9831 29.4485 78.9888C29.1672 83.6763 30.5891 89.7487 32.4329 92.1351C33.2454 93.1791 34.2282 93.2004 34.8376 93.2004C36.9938 93.2004 37.9626 90.7715 39.0391 87.8737C40.3672 84.3368 41.5391 80.2246 41.5391 80.2246C41.5391 80.2246 40.0704 91.3468 44.086 91.3468C45.5532 91.3468 47.0219 88.7686 47.6797 87.4476V87.4689C47.6797 87.4689 47.711 87.3837 47.7891 87.2132C47.9454 86.8936 48.0235 86.7019 48.0235 86.7019V86.6379C48.6172 85.253 49.9141 82.0783 51.8657 76.8368C54.3969 70.0612 56.8172 61.6024 56.8172 61.6024C57.0511 63.4619 57.3747 65.2983 57.786 67.0996C58.2235 69.1237 59.1454 71.3397 59.8797 73.4916C59.286 74.5996 58.9266 75.2388 58.9266 75.2388C58.9278 75.2552 58.9333 75.2704 58.9422 75.2814C58.4735 76.1337 57.9422 77.0499 57.3954 77.9448C55.3969 81.1834 53.0204 84.8908 52.7079 85.9561C52.3329 87.2132 52.4266 88.1507 53.1454 88.8752C53.6766 89.4291 54.6141 89.5144 55.5969 89.4078C57.3938 89.2374 58.6594 88.6408 59.2688 88.2573C60.3922 87.7079 61.454 86.9478 62.4235 85.9987C64.3766 84.0385 65.5641 81.226 65.4547 77.5186C65.3922 75.4732 64.9079 73.4277 64.3141 71.5101C64.486 71.1692 64.6735 70.807 64.8454 70.4448C67.9376 64.2871 70.3282 57.5286 70.3282 57.5286C70.5621 59.388 70.8857 61.2244 71.2969 63.0257C71.6719 64.7516 72.4047 66.6479 73.0766 68.5016C70.1719 71.7189 68.3751 75.4476 67.7501 77.8979C66.5938 82.4362 67.5001 84.4817 69.2032 84.9504C69.9688 85.1635 71.0626 84.6735 71.8751 84.2047C73.0817 83.6566 74.2195 82.859 75.2485 81.8397C77.2016 79.8794 79.0907 77.1308 78.9657 73.4022C78.9188 71.7189 78.5751 70.0357 78.1219 68.4164C80.5751 67.0101 83.761 66.2431 87.8235 66.8823C96.5235 68.2672 98.2266 75.682 97.8985 78.7715C97.5704 81.861 95.7422 83.5868 95.1329 84.0982C94.5235 84.6095 94.336 84.8013 94.3829 85.1848C94.461 85.7388 94.7422 85.7175 95.2579 85.5897C95.9766 85.4192 99.8188 83.0754 99.9907 77.3439C100.241 70.0996 95.1329 62.1308 86.0844 62.1948L86.0891 62.199ZM19.0297 93.03C16.1563 97.3127 12.1251 98.932 10.3922 97.5684C8.53287 96.0939 9.26724 89.7914 12.8126 85.2274C14.9688 82.4576 17.7485 79.9007 19.5922 78.324C20.0141 77.9831 20.6235 77.4718 21.3735 76.8539C21.4985 76.7473 21.561 76.7047 21.561 76.7047C21.7016 76.5769 21.8579 76.4703 22.0141 76.3425C23.3094 82.8198 22.061 88.53 19.0297 93.0257V93.03ZM40.0235 73.5556C39.0235 76.9007 36.9157 85.4235 35.6344 84.976C34.5407 84.5925 33.8688 78.0939 35.4157 71.7019C36.1969 68.4845 37.8532 64.6493 38.8376 63.1578C40.4141 60.7502 42.1485 59.9831 42.5547 60.9419C43.1016 62.199 40.6485 71.4675 40.0235 73.5556ZM57.3672 84.8482C56.9454 85.1465 56.5547 85.3382 56.3672 85.1891C56.2266 85.0826 56.5391 84.6777 56.5391 84.6777C56.5391 84.6777 58.711 81.503 59.5704 80.0541C60.0704 79.2019 60.6485 78.2004 61.2719 77.0925C61.2719 77.199 61.2876 77.3056 61.2876 77.4334C61.2672 81.2473 58.5813 83.8254 57.3626 84.8482H57.3672ZM70.7391 80.6933C70.4266 80.3951 70.4735 79.3936 71.5204 76.2828C71.9266 75.0683 72.8626 73.0229 74.4891 71.0627C74.6732 71.8047 74.7733 72.5806 74.786 73.3638C74.7704 78.1578 72.2547 79.9476 70.7407 80.6933H70.7391Z" fill="#CD6799"/>
</svg>
